<svg xmlns="http://www.w3.org/2000/svg" version="1.1" xmlns:xlink="http://www.w3.org/1999/xlink" xmlns:svgjs="http://svgjs.dev/svgjs" width="1500" height="700" viewBox="0 0 1500 700"><g transform="matrix(1,0,0,1,-0.9090909090909918,0.6185774819253993)"><svg viewBox="0 0 396 185" data-background-color="#0c1d36" preserveAspectRatio="xMidYMid meet" height="700" width="1500" xmlns="http://www.w3.org/2000/svg" xmlns:xlink="http://www.w3.org/1999/xlink"><g id="tight-bounds" transform="matrix(1,0,0,1,0.2400000000000091,-0.16348119165171227)"><svg viewBox="0 0 395.52 185.32696238330342" height="185.32696238330342" width="395.52"><g><svg viewBox="0 0 691.0317629138824 323.7935313794724" height="185.32696238330342" width="395.52"><g transform="matrix(1,0,0,1,0,14.801915860781918)"><svg viewBox="0 0 395.52 294.1896996579086" height="294.1896996579086" width="395.52"><g id="textblocktransform"><svg viewBox="0 0 395.52 294.1896996579086" height="294.1896996579086" width="395.52" id="textblock"><g><svg viewBox="0 0 395.52 216.37270588235296" height="216.37270588235296" width="395.52"><g transform="matrix(1,0,0,1,0,0)"><svg width="395.52" viewBox="4.65 -32.1 59.50000000000001 32.550000000000004" height="216.37270588235296" data-palette-color="#f9cc0b"><path d="M17.7-12.95Q21-7.5 26-0.95L26-0.95 25.95-0.45Q24.15 0.25 22.25 0.45L22.25 0.45 21.7 0.1Q17.6-6.05 14.35-11.9L14.35-11.9 8.5-11.9 8.5-10 8.7 0 4.65 0 4.9-9.65 4.65-32.05 14.45-32.1Q19.15-32.1 21.73-29.73 24.3-27.35 24.3-22.95L24.3-22.95Q24.3-19.65 22.58-17.03 20.85-14.4 17.7-12.95L17.7-12.95ZM8.7-28.65L8.55-15.3 14.55-15.15Q20.15-16.75 20.15-22.6L20.15-22.6Q20.15-25.65 18.5-27.18 16.85-28.7 13.55-28.8L13.55-28.8 8.7-28.65ZM61-32.05L64.15 0 60.55 0 59.8-9.75 58.1-25.7 57.75-25.7 48.85-3.7 45.55-3.7 37.1-25.7 36.7-25.7 35-10.05 34.15 0 30.75 0 34.1-32.05 38.65-32.05 40.3-27.15 47.25-8.9 47.55-8.9 54.85-27.45 56.5-32.05 61-32.05Z" opacity="1" transform="matrix(1,0,0,1,0,0)" fill="#f9cc0b" class="wordmark-text-0" data-fill-palette-color="primary" id="text-0"></path></svg></g></svg></g><g transform="matrix(1,0,0,1,0,267.4531087962353)"><svg viewBox="0 0 395.52 26.736590861673278" height="26.736590861673278" width="395.52"><g transform="matrix(1,0,0,1,0,0)"><svg width="395.52" viewBox="0.7 -32.05 479.3 32.4" height="26.736590861673278" data-palette-color="#f9cc0b"><path d="M17.1-32.05L27.8 0 23.7 0 22.95-3.2 21.15-8.7 13.95-8.85 7.45-8.7 5.5-3.4 4.7 0 0.7 0 12.45-32.05 17.1-32.05ZM14.3-12L20.05-12.1 14.85-27.9 14.5-27.9 8.7-12.1 14.3-12ZM50.15-24.95Q54.1-24.95 56.23-23.05 58.35-21.15 58.35-17.55L58.35-17.55Q58.35-13.35 55.68-10.98 53-8.6 48.3-8.6L48.3-8.6 45.25-8.6 45.25-7.8 45.35 0 41.65 0 41.8-7.5 41.65-24.9 50.15-24.95ZM49.5-11.5Q54.45-12.35 54.45-17.25L54.45-17.25Q54.45-19.6 53.13-20.75 51.8-21.9 49.15-22L49.15-22 45.35-21.95 45.3-11.6 49.5-11.5ZM73.1-24.9L81.85 0 78.1 0 77.5-2.7 76.2-6.4 70.25-6.45 64.95-6.4 63.6-2.9 62.9 0 59.2 0 68.8-24.9 73.1-24.9ZM70.55-9.4L75.15-9.45 71-21.25 70.7-21.25 66.15-9.45 70.55-9.4ZM95.4-25.15Q98.45-25.15 101.5-23.95L101.5-23.95 100.85-20.25 100.25-20.1Q98.85-21.2 97.6-21.73 96.35-22.25 95-22.25L95-22.25Q92.85-22.25 91.6-21.13 90.35-20 90.35-18.55L90.35-18.55Q90.35-17.1 91.58-16.2 92.8-15.3 95.35-14.2L95.35-14.2Q97.6-13.2 98.93-12.4 100.25-11.6 101.23-10.28 102.2-8.95 102.2-7.05L102.2-7.05Q102.2-5.1 101.15-3.43 100.1-1.75 98.08-0.73 96.05 0.3 93.25 0.3L93.25 0.3Q91.5 0.3 89.58-0.13 87.65-0.55 86-1.4L86-1.4 86.45-5.35 86.95-5.55Q88.35-4.15 90.23-3.38 92.1-2.6 93.7-2.6L93.7-2.6Q95.8-2.6 97.15-3.73 98.5-4.85 98.5-6.45L98.5-6.45Q98.5-7.95 97.28-8.85 96.05-9.75 93.45-10.95L93.45-10.95Q91.3-11.9 89.93-12.7 88.55-13.5 87.6-14.83 86.65-16.15 86.65-18.05L86.65-18.05Q86.65-20.05 87.73-21.65 88.8-23.25 90.78-24.2 92.75-25.15 95.4-25.15L95.4-25.15ZM116.65-25.15Q119.7-25.15 122.75-23.95L122.75-23.95 122.1-20.25 121.5-20.1Q120.1-21.2 118.85-21.73 117.6-22.25 116.25-22.25L116.25-22.25Q114.1-22.25 112.85-21.13 111.6-20 111.6-18.55L111.6-18.55Q111.6-17.1 112.83-16.2 114.05-15.3 116.6-14.2L116.6-14.2Q118.85-13.2 120.18-12.4 121.5-11.6 122.48-10.28 123.45-8.95 123.45-7.05L123.45-7.05Q123.45-5.1 122.4-3.43 121.35-1.75 119.33-0.73 117.3 0.3 114.5 0.3L114.5 0.3Q112.75 0.3 110.83-0.13 108.9-0.55 107.25-1.4L107.25-1.4 107.7-5.35 108.2-5.55Q109.6-4.15 111.48-3.38 113.35-2.6 114.95-2.6L114.95-2.6Q117.05-2.6 118.4-3.73 119.75-4.85 119.75-6.45L119.75-6.45Q119.75-7.95 118.53-8.85 117.3-9.75 114.7-10.95L114.7-10.95Q112.55-11.9 111.18-12.7 109.8-13.5 108.85-14.83 107.9-16.15 107.9-18.05L107.9-18.05Q107.9-20.05 108.98-21.65 110.05-23.25 112.03-24.2 114-25.15 116.65-25.15L116.65-25.15ZM134.3-24.9L134.15-7.8 134.25 0 130.55 0 130.7-7.5 130.55-24.9 134.3-24.9ZM152.45-25.2Q157.9-25.2 160.83-22 163.75-18.8 163.75-12.95L163.75-12.95Q163.75-6.6 160.63-3.13 157.5 0.35 151.7 0.35L151.7 0.35Q146.3 0.35 143.35-2.93 140.4-6.2 140.4-12.25L140.4-12.25Q140.4-18.45 143.55-21.83 146.7-25.2 152.45-25.2L152.45-25.2ZM152.1-22.05Q148.15-22.05 146.22-19.8 144.3-17.55 144.3-12.7L144.3-12.7Q144.3-7.5 146.2-5.15 148.1-2.8 152-2.8L152-2.8Q156-2.8 157.95-5.1 159.9-7.4 159.9-12.3L159.9-12.3Q159.9-17.35 157.98-19.7 156.05-22.05 152.1-22.05L152.1-22.05ZM191.3-25L191.15-7.45 191.2 0 187.2 0 174.1-19 173.85-19 173.8-8.3 173.9 0 170.5 0 170.65-7.35 170.55-24.9 174.5-24.9 187.6-5.9 187.95-5.9 187.85-24.75 191.3-25ZM210.95-24.9L219.7 0 215.95 0 215.35-2.7 214.05-6.4 208.1-6.45 202.8-6.4 201.45-2.9 200.75 0 197.05 0 206.65-24.9 210.95-24.9ZM208.4-9.4L213-9.45 208.85-21.25 208.55-21.25 204-9.45 208.4-9.4ZM238.7-24.9L238.9-24.6 238.65-21.45 234-21.8 231.5-21.8 231.35-7.8 231.5 0 227.75 0 227.9-7.5 227.8-21.8 225.3-21.8 220.55-21.45 220.25-21.8 220.55-24.9 238.7-24.9ZM253.55-3L260.2-3.2 260.5-2.9 260.15 0 245 0 245.15-7.5 245-24.9 260.25-24.9 260.5-24.6 260.2-21.7 253.9-21.9 248.7-21.85 248.65-14.3 253.6-14.25 257.95-14.4 258.2-14.05 257.9-11.1 253.3-11.25 248.65-11.2 248.6-7.8 248.65-3.05 253.55-3ZM284.75-25.1Q290.45-25.1 293.48-22.05 296.5-19 296.5-13.3L296.5-13.3Q296.5-6.75 293.2-3.25 289.9 0.25 283.75 0.25L283.75 0.25Q282 0.25 279.57 0.18 277.15 0.1 275 0L275 0 275.15-7.5 275-24.9 284.75-25.1ZM284.35-2.8Q288.35-2.8 290.52-5.23 292.7-7.65 292.7-12.55L292.7-12.55Q292.7-17.35 290.65-19.65 288.6-21.95 284.45-21.95L284.45-21.95Q282-21.95 278.7-21.75L278.7-21.75 278.6-7.8 278.65-3.1Q280.1-3 281.7-2.9 283.3-2.8 284.35-2.8L284.35-2.8ZM311.85-3L318.5-3.2 318.8-2.9 318.45 0 303.3 0 303.45-7.5 303.3-24.9 318.55-24.9 318.8-24.6 318.5-21.7 312.2-21.9 307-21.85 306.95-14.3 311.9-14.25 316.25-14.4 316.5-14.05 316.2-11.1 311.6-11.25 306.95-11.2 306.9-7.8 306.95-3.05 311.85-3ZM344.55-24.9L335.05 0 330.6 0 321.9-24.9 325.75-24.9 326.35-22.15 332.8-3.7 333.05-3.7 340.2-22 340.8-24.9 344.55-24.9ZM358.6-3L365.25-3.2 365.55-2.9 365.2 0 350.05 0 350.2-7.5 350.05-24.9 365.3-24.9 365.55-24.6 365.25-21.7 358.95-21.9 353.75-21.85 353.7-14.3 358.65-14.25 363-14.4 363.25-14.05 362.95-11.1 358.35-11.25 353.7-11.2 353.65-7.8 353.7-3.05 358.6-3ZM385-3.15L385.2-2.8 384.95 0 371.7 0 371.85-7.5 371.7-24.9 375.45-24.9 375.3-7.8 375.4-3.15 385-3.15ZM398.7-25.2Q404.15-25.2 407.08-22 410-18.8 410-12.95L410-12.95Q410-6.6 406.88-3.13 403.75 0.35 397.95 0.35L397.95 0.35Q392.55 0.35 389.6-2.93 386.65-6.2 386.65-12.25L386.65-12.25Q386.65-18.45 389.8-21.83 392.95-25.2 398.7-25.2L398.7-25.2ZM398.35-22.05Q394.4-22.05 392.48-19.8 390.55-17.55 390.55-12.7L390.55-12.7Q390.55-7.5 392.45-5.15 394.35-2.8 398.25-2.8L398.25-2.8Q402.25-2.8 404.2-5.1 406.15-7.4 406.15-12.3L406.15-12.3Q406.15-17.35 404.23-19.7 402.3-22.05 398.35-22.05L398.35-22.05ZM425.25-24.95Q429.2-24.95 431.33-23.05 433.45-21.15 433.45-17.55L433.45-17.55Q433.45-13.35 430.78-10.98 428.1-8.6 423.4-8.6L423.4-8.6 420.35-8.6 420.35-7.8 420.45 0 416.75 0 416.9-7.5 416.75-24.9 425.25-24.95ZM424.6-11.5Q429.55-12.35 429.55-17.25L429.55-17.25Q429.55-19.6 428.23-20.75 426.9-21.9 424.25-22L424.25-22 420.45-21.95 420.4-11.6 424.6-11.5ZM448.6-3L455.25-3.2 455.55-2.9 455.2 0 440.05 0 440.2-7.5 440.05-24.9 455.3-24.9 455.55-24.6 455.25-21.7 448.95-21.9 443.75-21.85 443.7-14.3 448.65-14.25 453-14.4 453.25-14.05 452.95-11.1 448.35-11.25 443.7-11.2 443.65-7.8 443.7-3.05 448.6-3ZM473.25-10.05Q476.3-5.4 480-0.9L480-0.9 479.95-0.4Q477.85 0.25 476.5 0.35L476.5 0.35 475.85-0.05Q472.05-5.8 470.1-9.1L470.1-9.1 465.4-9.05 465.4-7.8 465.5 0 461.8 0 461.95-7.5 461.8-24.9 470.3-24.95Q474.25-24.95 476.38-23.1 478.5-21.25 478.5-17.75L478.5-17.75Q478.5-15.2 477.13-13.2 475.75-11.2 473.25-10.05L473.25-10.05ZM465.5-21.9L465.45-12.15 470.15-12Q474.6-13.25 474.6-17.45L474.6-17.45Q474.6-19.65 473.3-20.75 472-21.85 469.35-21.95L469.35-21.95 465.5-21.9Z" opacity="1" transform="matrix(1,0,0,1,0,0)" fill="#f9cc0b" class="slogan-text-1" data-fill-palette-color="secondary" id="text-1"></path></svg></g></svg></g></svg></g></svg></g><g transform="matrix(1,0,0,1,446.60040291388236,0)"><svg viewBox="0 0 244.43135999999998 323.7935313794724" height="323.7935313794724" width="244.43135999999998"><g><svg xmlns:dc="http://purl.org/dc/elements/1.1/" xmlns:cc="http://creativecommons.org/ns#" xmlns:rdf="http://www.w3.org/1999/02/22-rdf-syntax-ns#" xmlns:svg="http://www.w3.org/2000/svg" xmlns="http://www.w3.org/2000/svg" xmlns:sodipodi="http://sodipodi.sourceforge.net/DTD/sodipodi-0.dtd" xmlns:inkscape="http://www.inkscape.org/namespaces/inkscape" version="1.1" x="0" y="0" viewBox="17.800781 2.8007812 92.398439 122.3984388" enable-background="new 0 0 128 128" xml:space="preserve" height="323.7935313794724" width="244.43135999999998" class="icon-icon-0" data-fill-palette-color="accent" id="icon-0"><path d="M34 2.801C25 2.801 17.801 10 17.801 19L17.801 109C17.801 118 25.1 125.199 34 125.199L94 125.199C103 125.199 110.199 117.9 110.199 109L110.199 34 110.199 33.9 110.199 33.6 110.199 33.5C110.099 33.4 110.1 33.2 110 33.1L80 3.1C79.9 3 79.8 2.9 79.6 2.9L79.5 2.9C79.4 2.9 79.299 2.801 79.199 2.801L79.1 2.801 34 2.801zM34 5.199L77.801 5.199 77.801 19C77.801 28 85.1 35.199 94 35.199L107.801 35.199 107.801 109C107.801 116.6 101.6 122.801 94 122.801L34 122.801C26.4 122.801 20.199 116.6 20.199 109L20.199 19C20.199 11.4 26.4 5.199 34 5.199zM52.1 55.4C49.8 55.4 48.5 55.9 47.6 56.6 46.9 57.1 46.2 57.901 45.9 58.801 45.9 58.901 45.801 59 45.801 59.1 45.801 59.6 46.199 59.999 46.699 60.199 46.899 60.299 47.101 60.301 47.301 60.301 47.801 60.301 48.2 60.1 48.4 59.6 48.9 58.3 49.9 57.5 52 57.5 54.2 57.5 55.199 58.299 55.199 60.199L55.199 61.4C52.199 61.5 50.699 61.6 49.199 62.1 46.499 62.8 44.9 64.499 44.9 67.199 44.9 70.099 46.8 71.9 49.9 71.9 52.7 71.9 54.201 70.8 55.301 69.6 55.301 70.2 55.4 70.7 55.5 71 55.6 71.5 56.099 71.699 56.699 71.699L57 71.699C57.7 71.599 58.1 71.201 58.1 70.801 58.1 70.701 58.1 70.6 58 70.5 57.9 69.9 57.801 68.9 57.801 67.9L57.801 60.199C57.801 56.899 55.9 55.4 52.1 55.4zM67.5 55.4C63.9 55.4 61.699 57.199 61.699 59.699 61.699 62.399 63.1 63.601 66.6 64.301L68.199 64.6C70.799 65.1 71.5 65.901 71.5 67.301 71.5 68.701 70.001 69.699 67.801 69.699 65.601 69.699 64.4 68.899 63.9 67.199 63.7 66.699 63.199 66.4 62.699 66.4 62.599 66.4 62.401 66.4 62.301 66.5 61.801 66.6 61.301 67 61.301 67.6 61.301 67.7 61.3 67.8 61.4 68 62.1 70.5 64.3 72 67.9 72 71.9 72 74.199 70.001 74.199 67.301 73.899 64.201 72.401 63.101 68.801 62.301L67 62C64.6 61.5 64.1 60.9 64.1 59.6 64.1 58.4 65.2 57.5 67.5 57.5 69.1 57.5 70.399 58.2 70.699 59.4 70.799 59.9 71.3 60.199 71.9 60.199 72 60.199 72.2 60.2 72.4 60.1 72.9 60 73.4 59.6 73.4 59.1 73.4 59 73.401 58.901 73.301 58.801 72.601 56.701 70.6 55.4 67.5 55.4zM84.801 55.4C82.101 55.4 80.5 56.699 79.5 58.699 79.6 58.199 79.6 57.5 79.6 57.1L79.6 56.6C79.6 55.9 79.1 55.6 78.4 55.6 77.6 55.6 77.1 55.999 77.1 56.699L77.1 76.4C77.1 77.1 77.6 77.5 78.4 77.5 79.2 77.5 79.6 77.1 79.6 76.4L79.6 70.199C79.6 69.699 79.6 69.1 79.5 68.6 80.5 70.6 82.099 71.9 84.699 71.9 88.899 71.9 91.5 68.6 91.5 63.5 91.5 58.4 89.001 55.4 84.801 55.4zM84.5 57.6C87.4 57.6 88.9 59.9 88.9 63.6 88.8 67.2 87.2 69.6 84.4 69.6 81.4 69.6 79.6 67.1 79.6 63.6 79.6 60.1 81.4 57.6 84.5 57.6zM55.301 63.4L55.301 65.301C55.301 66.401 55.1 66.9 54.6 67.6 53.7 68.7 52.2 69.6 50.4 69.6 48.7 69.6 47.6 68.6 47.6 67.1 47.6 65.7 48.201 64.901 49.301 64.301 50.401 63.701 52.001 63.5 55.301 63.4zM39.5 67.699C38.4 67.699 37.5 68.5 37.5 69.6 37.5 70.8 38.3 71.6 39.5 71.6 40.6 71.6 41.5 70.8 41.5 69.6 41.4 68.5 40.6 67.699 39.5 67.699z" fill="#f9f9f9" data-fill-palette-color="accent"></path></svg></g></svg></g></svg></g><defs></defs></svg><rect width="395.52" height="185.32696238330342" fill="none" stroke="none" visibility="hidden"></rect></g></svg></g></svg>